# xmcd CD database file
#
# Track frame offsets:
#	150
#	11394
#	24464
#	37395
#	47830
#	59390
#	70253
#	82743
#	99639
#	112305
#	127940
#	137913
#
# Disc length: 2011 seconds
#
# Revision: 0
# Processed by: cddbd v1.5.1PL0 Copyright (c) Steve Scherf et al.
# Submitted via: CDex 1.51
#
DISCID=a507d90c
DTITLE=Various Artist - Total Country CD 2
DYEAR=1900
DGENRE=Country
TTITLE0=WAYLON JENNINGS - DREAM BABY
TTITLE1=LYNN ANDERSON - ROSE GARDEN
TTITLE2=WILLIE NELSON - SHE'S NOT FOR YOU
TTITLE3=CARL PERKINS - DADDY SANG BASS
TTITLE4=KENNY ROGERS - ME AND BOBBY MC GEE
TTITLE5=DOLLY PARTON - IT WAS NOT GOD WHO MADE HONKY TONK ANGELS
TTITLE6=GRAM PARSONS and EMMYLOU HARRIS - THAT'S ALL IT TOOK
TTITLE7=MICKEY GILLEY - C C RIDER
TTITLE8=OAK RIDGE BOYS - YOU'LL NEVER WALK ALONE
TTITLE9=GENE PARSONS - WAY OUT THERE
TTITLE10=RAY PILLOW - WE'RE TOGETHER AGAIN
TTITLE11=DON WILLIAM - WHERE DO WE GO FROM HERE
EXTD=
EXTT0=
EXTT1=
EXTT2=
EXTT3=
EXTT4=
EXTT5=
EXTT6=
EXTT7=
EXTT8=
EXTT9=
EXTT10=
EXTT11=
PLAYORDER=
